<svg width="646" height="537" viewBox="0 0 646 537" fill="none" xmlns="http://www.w3.org/2000/svg">
<g clip-path="url(#clip0_17_649)">
<path d="M645.208 252.925C636.495 257.918 627.821 262.912 619.108 267.905V428.609C627.623 423.814 636.138 418.979 644.614 414.183C644.812 360.444 645.01 306.664 645.208 252.925Z" fill="white"/>
<path d="M457.4 360.523C448.687 365.517 440.013 370.471 431.3 375.464V535.653C439.815 530.857 448.33 526.062 456.806 521.267C457.004 467.686 457.202 414.105 457.4 360.523Z" fill="white"/>
<path d="M0.990234 269.65C7.72311 273.613 14.456 277.576 21.2285 281.539C21.0701 335.239 20.9512 388.978 20.7928 442.678C14.1788 438.834 7.6043 434.99 0.990234 431.146V269.61V269.65Z" fill="white"/>
<path d="M198.778 156.661C205.511 160.624 212.244 164.587 219.017 168.551C218.858 222.251 218.739 275.99 218.581 329.69C211.967 325.846 205.392 322.002 198.778 318.158V156.622V156.661Z" fill="white"/>
<path d="M357.556 65.9458C364.289 69.9089 371.021 73.872 377.794 77.8351C377.635 131.535 377.517 185.275 377.358 238.975C370.744 235.131 364.17 231.286 357.556 227.442V65.9458Z" fill="white"/>
<path d="M155.332 206.319H131.054V249.715H155.332V206.319Z" fill="white"/>
<path d="M490.431 12.9595H466.708V84.6916H490.431V12.9595Z" fill="white"/>
<path d="M155.728 205.804V240.679" stroke="black" stroke-width="0.25" stroke-miterlimit="10"/>
<path d="M198.422 156.939V252.291" stroke="black" stroke-width="0.25" stroke-miterlimit="10"/>
<path d="M357.555 65.9463V165.698" stroke="black" stroke-width="0.25" stroke-miterlimit="10"/>
<path d="M0.989746 269.649V431.185" stroke="black" stroke-width="0.25" stroke-miterlimit="10"/>
<path d="M376.724 67.0557V166.847" stroke="black" stroke-width="0.25" stroke-miterlimit="10"/>
<mask id="mask0_17_649" style="mask-type:luminance" maskUnits="userSpaceOnUse" x="0" y="0" width="646" height="375">
<path d="M357.08 65.9462L471.024 0.87207L490.945 12.6028C483.222 18.0719 477.598 25.4037 474.034 34.6773C470.509 43.951 472.885 53.6209 480.925 63.489C500.569 86.7524 519.303 109.104 537.165 129.95C555.027 150.757 574.948 174.178 597.008 200.216C604.137 208.538 611.543 217.376 620.217 226.571C628.534 235.924 636.89 244.642 645.208 252.965L619.108 267.866L377.199 217.495L457.083 360.404L432.132 374.632C371.773 356.679 312.366 338.924 253.235 321.011C194.421 303.257 143.014 287.8 98.7353 274.841C85.9428 271.116 72.2791 270.323 57.4271 272.226C42.5752 274.167 31.0105 277.338 21.228 281.539L0.989746 269.649L134.816 193.201L156.202 205.804C149.39 209.688 143.45 214.483 137.826 220.111C132.202 225.738 131.608 229.86 136.36 232.634C137.271 233.149 139.331 234.061 142.618 234.933C145.865 236.161 149.707 237.39 153.905 238.5C181.827 247.377 213.036 257.126 247.215 267.906C281.394 278.725 326.267 292.715 381.239 309.915L292.84 161.457C284.206 153.055 261.275 154.086 249.869 157.613C237.948 161.259 222.145 166.767 218.541 168.828L198.303 156.939L308.207 94.1634L344.089 158.326L562.235 203.466C543.818 182.62 526.234 162.012 509.283 142.038C492.332 122.064 476.252 103.675 460.212 87.0299C456.33 83.0271 452.766 79.5396 449.796 76.0917C446.508 72.8023 443.261 69.83 438.785 67.2144C435.221 65.1139 430.468 64.0439 424.211 64.1628C418.27 64.4402 412.052 65.2328 405.2 66.7388C399.576 68.2448 393.635 69.9093 388.328 72.2475C382.665 74.4272 378.823 76.2899 376.724 77.4788L357.119 65.9462H357.08Z" fill="white"/>
</mask>
<g mask="url(#mask0_17_649)">
<path d="M357.08 65.9462L471.024 0.87207L490.945 12.6028C483.222 18.0719 477.598 25.4037 474.034 34.6773C470.509 43.951 472.885 53.6209 480.925 63.489C500.569 86.7524 519.303 109.104 537.165 129.95C555.027 150.757 574.948 174.178 597.008 200.216C604.137 208.538 611.543 217.376 620.217 226.571C628.534 235.924 636.89 244.642 645.208 252.965L619.108 267.866L377.199 217.495L457.083 360.404L432.132 374.632C371.773 356.679 312.366 338.924 253.235 321.011C194.421 303.257 143.014 287.8 98.7353 274.841C85.9428 271.116 72.2791 270.323 57.4271 272.226C42.5752 274.167 31.0105 277.338 21.228 281.539L0.989746 269.649L134.816 193.201L156.202 205.804C149.39 209.688 143.45 214.483 137.826 220.111C132.202 225.738 131.608 229.86 136.36 232.634C137.271 233.149 139.331 234.061 142.618 234.933C145.865 236.161 149.707 237.39 153.905 238.5C181.827 247.377 213.036 257.126 247.215 267.906C281.394 278.725 326.267 292.715 381.239 309.915L292.84 161.457C284.206 153.055 261.275 154.086 249.869 157.613C237.948 161.259 222.145 166.767 218.541 168.828L198.303 156.939L308.207 94.1634L344.089 158.326L562.235 203.466C543.818 182.62 526.234 162.012 509.283 142.038C492.332 122.064 476.252 103.675 460.212 87.0299C456.33 83.0271 452.766 79.5396 449.796 76.0917C446.508 72.8023 443.261 69.83 438.785 67.2144C435.221 65.1139 430.468 64.0439 424.211 64.1628C418.27 64.4402 412.052 65.2328 405.2 66.7388C399.576 68.2448 393.635 69.9093 388.328 72.2475C382.665 74.4272 378.823 76.2899 376.724 77.4788L357.119 65.9462H357.08Z" stroke="black" stroke-width="0.25" stroke-miterlimit="10"/>
</g>
<mask id="mask1_17_649" style="mask-type:luminance" maskUnits="userSpaceOnUse" x="356" y="0" width="116" height="228">
<path d="M357.08 65.9462L471.024 0.87207L470.549 162.368L356.645 227.442L357.08 65.9462Z" fill="white"/>
</mask>
<g mask="url(#mask1_17_649)">
<path d="M356.645 227.442L357.08 65.9462L471.024 0.87207L470.549 162.368" stroke="black" stroke-width="0.25" stroke-miterlimit="10"/>
</g>
<mask id="mask2_17_649" style="mask-type:luminance" maskUnits="userSpaceOnUse" x="470" y="0" width="21" height="175">
<path d="M471.024 0.87207L490.945 12.5632L490.51 174.099L470.549 162.368L471.024 0.87207Z" fill="white"/>
</mask>
<g mask="url(#mask2_17_649)">
<path d="M471.024 0.87207L490.945 12.5632L490.51 174.099" stroke="black" stroke-width="0.25" stroke-miterlimit="10"/>
</g>
<mask id="mask3_17_649" style="mask-type:luminance" maskUnits="userSpaceOnUse" x="618" y="252" width="28" height="178">
<path d="M645.208 252.925L644.733 414.461L618.633 429.362L619.108 267.827L645.208 252.925Z" fill="white"/>
</mask>
<g mask="url(#mask3_17_649)">
<path d="M645.208 252.925L644.733 414.461L618.633 429.362L619.108 267.827" stroke="black" stroke-width="0.25" stroke-miterlimit="10"/>
</g>
<mask id="mask4_17_649" style="mask-type:luminance" maskUnits="userSpaceOnUse" x="431" y="360" width="27" height="177">
<path d="M457.083 360.365L456.608 521.901L431.657 536.168L432.132 374.632L457.083 360.365Z" fill="white"/>
</mask>
<g mask="url(#mask4_17_649)">
<path d="M457.083 360.365L456.608 521.901L431.657 536.168L432.132 374.632" stroke="black" stroke-width="0.25" stroke-miterlimit="10"/>
</g>
<mask id="mask5_17_649" style="mask-type:luminance" maskUnits="userSpaceOnUse" x="20" y="271" width="413" height="266">
<path d="M432.132 374.632L431.657 536.168C371.298 518.215 311.891 500.46 252.76 482.547C193.946 464.792 142.539 449.336 98.2603 436.377C85.4678 432.652 71.804 431.859 56.9521 433.761C42.1001 435.703 30.5354 438.874 20.7529 443.075L21.2282 281.539C31.0107 277.298 42.615 274.167 57.4273 272.225C72.2793 270.283 85.9431 271.116 98.7355 274.841C143.014 287.8 194.422 303.256 253.235 321.011C312.366 338.924 371.774 356.679 432.132 374.632Z" fill="white"/>
</mask>
<g mask="url(#mask5_17_649)">
<path d="M432.132 374.632L431.657 536.168C371.299 518.215 311.891 500.46 252.76 482.547L253.236 321.011C312.366 338.924 371.774 356.679 432.132 374.632Z" stroke="black" stroke-width="0.25" stroke-miterlimit="10"/>
<path d="M372.051 356.719L371.615 518.255" stroke="black" stroke-width="0.25" stroke-miterlimit="10"/>
<path d="M312.485 338.885L312.049 500.421" stroke="black" stroke-width="0.25" stroke-miterlimit="10"/>
<path d="M253.235 321.011L252.76 482.547C193.946 464.792 142.539 449.336 98.2603 436.377L98.7355 274.841C143.014 287.8 194.422 303.256 253.235 321.011Z" stroke="black" stroke-width="0.25" stroke-miterlimit="10"/>
<path d="M196.877 304.049L196.402 465.545" stroke="black" stroke-width="0.25" stroke-miterlimit="10"/>
<path d="M145.39 288.632L144.955 450.168" stroke="black" stroke-width="0.25" stroke-miterlimit="10"/>
<path d="M98.7356 274.841L98.2603 436.377C85.4679 432.652 71.8041 431.859 56.9521 433.761L57.4274 272.225C72.2794 270.283 85.9431 271.116 98.7356 274.841Z" stroke="black" stroke-width="0.25" stroke-miterlimit="10"/>
<path d="M85.6261 272.067L85.1904 433.603" stroke="black" stroke-width="0.25" stroke-miterlimit="10"/>
<path d="M71.8834 271.235L71.4478 432.731" stroke="black" stroke-width="0.25" stroke-miterlimit="10"/>
<path d="M57.4273 272.226L56.9521 433.762C42.1001 435.703 30.5354 438.874 20.7529 443.075L21.2282 281.539C31.0107 277.298 42.615 274.168 57.4273 272.226Z" stroke="black" stroke-width="0.25" stroke-miterlimit="10"/>
<path d="M43.6051 274.564L43.1694 436.1" stroke="black" stroke-width="0.25" stroke-miterlimit="10"/>
<path d="M31.6442 277.695L31.2085 439.231" stroke="black" stroke-width="0.25" stroke-miterlimit="10"/>
<path d="M432.132 374.632L431.657 536.168C371.298 518.215 311.891 500.46 252.76 482.547C193.946 464.792 142.539 449.336 98.2603 436.377C85.4678 432.652 71.804 431.859 56.9521 433.761C42.1001 435.703 30.5354 438.874 20.7529 443.075L21.2282 281.539C31.0107 277.298 42.615 274.167 57.4273 272.225C72.2793 270.283 85.9431 271.116 98.7355 274.841C143.014 287.8 194.422 303.256 253.235 321.011C312.366 338.924 371.774 356.679 432.132 374.632Z" stroke="black" stroke-width="0.25" stroke-miterlimit="10"/>
</g>
<mask id="mask6_17_649" style="mask-type:luminance" maskUnits="userSpaceOnUse" x="0" y="269" width="22" height="175">
<path d="M21.2282 281.539L20.7529 443.075L0.514648 431.185L0.989911 269.649L21.2282 281.539Z" fill="white"/>
</mask>
<g mask="url(#mask6_17_649)">
<path d="M21.2282 281.539L20.7529 443.075L0.514648 431.185L0.989911 269.649" stroke="black" stroke-width="0.25" stroke-miterlimit="10"/>
</g>
<path d="M155.767 367.34L134.38 354.737" stroke="black" stroke-width="0.25" stroke-miterlimit="10"/>
<mask id="mask7_17_649" style="mask-type:luminance" maskUnits="userSpaceOnUse" x="197" y="156" width="22" height="175">
<path d="M218.541 168.828L218.105 330.364L197.867 318.475L198.342 156.939L218.541 168.828Z" fill="white"/>
</mask>
<g mask="url(#mask7_17_649)">
<path d="M218.541 168.828L218.105 330.364L197.867 318.475L198.342 156.939" stroke="black" stroke-width="0.25" stroke-miterlimit="10"/>
</g>
<mask id="mask8_17_649" style="mask-type:luminance" maskUnits="userSpaceOnUse" x="197" y="94" width="112" height="225">
<path d="M198.342 156.939L308.247 94.1636L307.772 255.699L197.867 318.475L198.342 156.939Z" fill="white"/>
</mask>
<g mask="url(#mask8_17_649)">
<path d="M197.867 318.475L198.342 156.939L308.247 94.1636L307.772 255.699" stroke="black" stroke-width="0.25" stroke-miterlimit="10"/>
</g>
<mask id="mask9_17_649" style="mask-type:luminance" maskUnits="userSpaceOnUse" x="307" y="94" width="38" height="226">
<path d="M308.247 94.1636L344.089 158.326L343.654 319.862L307.771 255.699L308.247 94.1636Z" fill="white"/>
</mask>
<g mask="url(#mask9_17_649)">
<path d="M308.247 94.1636L344.089 158.326L343.654 319.862" stroke="black" stroke-width="0.25" stroke-miterlimit="10"/>
</g>
<mask id="mask10_17_649" style="mask-type:luminance" maskUnits="userSpaceOnUse" x="343" y="158" width="220" height="208">
<path d="M344.089 158.326L562.235 203.466L561.76 365.002L343.654 319.862L344.089 158.326Z" fill="white"/>
</mask>
<g mask="url(#mask10_17_649)">
<path d="M344.089 158.326L562.235 203.466L561.759 365.002" stroke="black" stroke-width="0.25" stroke-miterlimit="10"/>
</g>
<mask id="mask11_17_649" style="mask-type:luminance" maskUnits="userSpaceOnUse" x="449" y="76" width="114" height="289">
<path d="M449.756 76.0522C452.726 79.5398 456.291 83.0273 460.172 86.9904C476.212 103.635 492.292 122.024 509.243 141.998C526.194 161.933 543.779 182.58 562.195 203.426L561.72 364.962C543.303 344.116 525.719 323.508 508.768 303.534C491.817 283.56 475.737 265.171 459.697 248.526C455.816 244.524 452.251 241.036 449.281 237.588" fill="white"/>
</mask>
<g mask="url(#mask11_17_649)">
<path d="M459.736 248.566C455.855 244.563 452.291 241.076 449.32 237.628" stroke="black" stroke-width="0.25" stroke-miterlimit="10"/>
</g>
<mask id="mask12_17_649" style="mask-type:luminance" maskUnits="userSpaceOnUse" x="376" y="72" width="13" height="168">
<path d="M387.853 233.784C382.19 235.963 378.348 237.826 376.249 239.015L376.724 77.4788C378.784 76.2899 382.665 74.4273 388.329 72.2476" fill="white"/>
</mask>
<g mask="url(#mask12_17_649)">
<path d="M387.853 233.784C382.19 235.963 378.348 237.826 376.249 239.015L376.724 77.479" stroke="black" stroke-width="0.25" stroke-miterlimit="10"/>
</g>
<mask id="mask13_17_649" style="mask-type:luminance" maskUnits="userSpaceOnUse" x="356" y="65" width="21" height="175">
<path d="M376.724 77.4789L376.249 239.015L356.645 227.443L357.08 65.9463L376.724 77.4789Z" fill="white"/>
</mask>
<g mask="url(#mask13_17_649)">
<path d="M376.249 239.015L356.645 227.443L357.08 65.9463" stroke="black" stroke-width="0.25" stroke-miterlimit="10"/>
</g>
<path d="M58.3384 128.286V128.483" stroke="black" stroke-width="0.25" stroke-miterlimit="10"/>
<path d="M457.083 360.365V521.901" stroke="black" stroke-width="0.25" stroke-miterlimit="10"/>
<path d="M619.108 267.391V428.61" stroke="black" stroke-width="0.25" stroke-miterlimit="10"/>
<path d="M644.614 252.925V414.461" stroke="black" stroke-width="0.25" stroke-miterlimit="10"/>
<path d="M490.431 12.563V174.099" stroke="black" stroke-width="0.25" stroke-miterlimit="10"/>
<path d="M432.132 374.632L457.083 360.365" stroke="black" stroke-width="0.25" stroke-miterlimit="10"/>
<path d="M431.419 535.653L457.321 521.465" stroke="black" stroke-width="0.25" stroke-miterlimit="10"/>
<path d="M618.633 428.768L644.891 414.025" stroke="black" stroke-width="0.25" stroke-miterlimit="10"/>
<path d="M20.7852 442.387C20.8644 388.449 20.9509 334.803 21.0301 280.825C29.8621 276.902 44.2783 271.829 62.6948 271.036C77.7843 270.402 91.9849 272.622 100.5 275C211.553 308.052 321.022 341.48 432.075 374.533C431.917 428.272 431.726 482.334 431.608 536.074C319.446 502.586 207.188 468.916 95.0261 435.468C84.293 432.682 74.1406 432.136 59.962 433.286C40.487 435.739 29.9334 439.236 20.8242 442.961L20.7852 442.387Z" fill="black"/>
<path d="M218.066 258.315C218.145 228.275 218.224 198.274 218.304 168.234C230.898 162.448 241.789 159.238 249.631 157.375C251.017 157.058 260.404 154.363 271.731 154.759C283.811 155.195 288.88 158.485 290.147 159.357C294.583 162.369 297.118 166.252 298.464 168.828L381.318 310.113C326.901 292.834 272.523 275.594 218.106 258.315H218.066Z" fill="black"/>
<path d="M377.199 165.539C377.199 136.093 377.199 106.608 377.199 77.1617C389.556 69.7111 400.725 66.2235 408.25 64.4798C409.319 64.242 419.973 61.9038 433.716 62.5378C440.369 62.8549 444.528 63.7268 448.37 66.501C452.251 69.3148 454.271 73.0004 455.34 75.4179C490.985 118.101 526.59 160.823 562.235 203.505C500.569 190.863 438.864 178.221 377.199 165.618V165.539Z" fill="white"/>
<path d="M618.633 429.362C618.791 375.504 618.95 321.685 619.108 267.827C538.274 250.944 457.479 234.101 376.645 217.218C403.458 265.013 430.27 312.808 457.083 360.603C457.083 372.254 457.123 383.866 457.162 395.518C510.986 406.812 564.809 418.068 618.633 429.362Z" fill="black"/>
<path d="M619.108 267.391L644.614 252.925" stroke="black" stroke-width="0.25" stroke-miterlimit="10"/>
<path d="M432.052 374.196C359.892 352.716 304.761 336.23 253.354 320.655C191.887 302.107 142.103 287.127 98.854 274.485C90.5765 272.067 81.7446 270.838 72.5562 270.838C67.6847 270.838 62.5757 271.195 57.3874 271.829C43.2484 273.692 31.3668 276.744 21.0695 281.182L1.78174 269.65L134.816 193.677L155.45 205.804C149.271 209.41 143.41 214.008 137.588 219.833C134.103 223.321 132.518 226.214 132.835 228.671C133.033 230.375 134.182 231.802 136.202 232.991C136.677 233.268 138.499 234.259 142.539 235.329C145.945 236.637 149.865 237.866 153.826 238.896C193.075 249.002 223.69 259.98 238.383 265.251C242.383 266.677 245.354 267.747 247.096 268.302C272.602 276.347 313.593 289.227 381.12 310.311L382.11 310.628L297.949 168.075C296.761 166.015 295.296 164.152 293.632 162.527C288.127 157.216 280.087 154.522 269.75 154.522C248.166 154.522 223.175 166.133 218.382 168.472L208.64 162.527L199.134 156.939L308.088 94.7184L343.772 158.524L563.344 204.1L562.551 203.188C544.214 182.461 526.748 161.933 509.877 142.077C495.183 124.759 478.034 104.943 460.529 86.7525L457.835 84.018C455.023 81.1646 452.37 78.4697 450.112 75.8144C447.102 72.7628 443.696 69.5923 439.023 66.8578C435.498 64.797 430.904 63.7666 425.28 63.7666H424.25C418.032 64.0836 411.814 64.9159 405.16 66.3426C399.22 67.9278 393.437 69.5527 388.209 71.8909C381.754 74.3877 378.189 76.2503 376.764 77.0033L357.912 65.9066L471.024 1.30811L490.232 12.6029C482.747 18.0324 477.202 25.4038 473.677 34.4792C470.113 43.7925 472.45 53.621 480.608 63.6873L497.005 83.1065C510.748 99.4345 524.055 115.168 536.887 130.148C554.393 150.558 573.958 173.544 596.731 200.414L599.265 203.387C605.681 210.916 612.335 218.684 619.979 226.808C627.385 235.131 635.465 243.652 644.613 252.846L618.949 267.51L376.486 216.94L456.608 360.246L432.171 374.196H432.052Z" fill="white"/>
<path d="M471.024 1.78358L489.52 12.6425C482.232 18.0719 476.767 25.364 473.321 34.3603C469.717 43.7924 472.054 53.7794 480.331 63.9646C485.836 70.5037 491.302 76.9636 496.649 83.3045C510.59 99.8307 523.738 115.406 536.57 130.386C554.076 150.796 574.235 174.456 596.374 200.652L599.028 203.743C605.404 211.233 612.018 218.961 619.583 227.046C626.91 235.289 634.871 243.691 643.861 252.727L618.91 266.994L377.318 216.702L375.615 216.346L376.447 217.852L455.934 360.048L431.973 373.72C359.615 352.201 304.524 335.675 253.433 320.219C192.006 301.671 142.222 286.73 98.9333 274.049C90.6163 271.631 81.7447 270.402 72.5167 270.402C67.6453 270.402 62.5362 270.759 57.3083 271.433C43.2881 273.256 31.4857 276.268 21.2676 280.667L2.57395 269.649L134.816 194.113L154.658 205.764C148.638 209.331 142.974 213.849 137.271 219.516C133.667 223.123 132.083 226.095 132.4 228.671C132.637 230.494 133.826 232.04 135.964 233.308C136.439 233.585 138.34 234.616 142.341 235.646C145.786 236.954 149.707 238.182 153.707 239.213C192.956 249.319 223.531 260.297 238.225 265.568C242.264 267.034 245.195 268.064 246.977 268.619C281.157 279.399 326.227 293.547 381.001 310.628L382.982 311.222L381.952 309.439L330.94 223.004L298.345 167.758C297.118 165.658 295.652 163.755 293.949 162.131C288.365 156.741 280.246 154.006 269.79 154.006C248.641 154.006 224.244 165.103 218.62 167.798L208.877 162.051L199.927 156.78L307.969 95.075L343.456 158.524L343.614 158.841L343.971 158.92L562.116 204.06L564.453 204.536L562.868 202.752C544.492 181.986 526.986 161.378 509.916 141.364C495.46 124.362 478.351 104.547 460.806 86.3165C459.895 85.405 459.024 84.4935 458.152 83.6216C455.34 80.7682 452.687 78.0733 450.39 75.3783C447.38 72.3664 443.974 69.1563 439.221 66.3821C435.657 64.2817 430.944 63.2116 425.24 63.2116C424.924 63.2116 424.567 63.2116 424.211 63.2116C417.993 63.489 411.695 64.3609 405.042 65.8273C399.101 67.4125 393.319 69.0374 388.051 71.3756C381.833 73.7931 378.269 75.5765 376.764 76.4484L358.704 65.8273L471.024 1.78358ZM471.024 0.87207L357.08 65.9462L376.684 77.4788C378.744 76.2899 382.625 74.4272 388.289 72.2475C393.596 69.8696 399.537 68.2448 405.161 66.7388C412.012 65.2328 418.23 64.4402 424.171 64.1628C424.488 64.1628 424.844 64.1628 425.161 64.1628C430.904 64.1628 435.379 65.2328 438.746 67.2144C443.221 69.83 446.469 72.8023 449.756 76.0917C452.726 79.5792 456.291 83.0668 460.172 87.0299C476.212 103.675 492.292 122.064 509.243 142.038C526.194 161.972 543.779 182.62 562.195 203.466L344.05 158.326L308.167 94.1634L198.263 156.939C204.996 160.902 211.729 164.865 218.501 168.828C222.145 167.045 247.77 154.918 269.711 154.918C278.82 154.918 287.296 157.018 293.316 162.804C294.86 164.31 296.326 166.094 297.553 168.273C325.435 215.474 353.317 262.714 381.199 309.915C313.633 288.831 272.681 275.951 247.176 267.906C238.858 265.29 203.61 251.261 153.866 238.5C149.707 237.429 145.865 236.201 142.578 234.933C139.291 234.061 137.232 233.149 136.321 232.634C131.568 229.82 132.162 225.699 137.786 220.111C143.45 214.483 149.351 209.688 156.163 205.804L134.776 193.201L0.989746 269.649L21.228 281.539C31.0105 277.298 42.6148 274.167 57.4271 272.226C62.6154 271.552 67.6453 271.235 72.5167 271.235C81.6655 271.235 90.3786 272.424 98.7353 274.841C143.014 287.8 194.421 303.257 253.235 321.011C312.366 338.924 371.773 356.679 432.132 374.632L457.083 360.404L377.199 217.495L619.108 267.866L645.208 252.965C636.89 244.642 628.534 235.924 620.217 226.571C611.543 217.376 604.137 208.538 597.008 200.216C574.988 174.178 555.066 150.757 537.165 129.95C519.303 109.144 500.569 86.7524 480.925 63.489C472.925 53.5813 470.509 43.951 474.034 34.6773C477.598 25.4037 483.222 18.0719 490.945 12.6028L471.024 0.87207Z" fill="black"/>
<line x1="357.582" y1="65.994" x2="357.418" y2="161.466" stroke="black"/>
<line x1="490.348" y1="12.646" x2="490.348" y2="75.2808" stroke="black"/>
<line x1="456.492" y1="360.429" x2="456.719" y2="521.586" stroke="black"/>
<line x1="644.791" y1="253.306" x2="645.018" y2="414.464" stroke="black"/>
<line x1="619.442" y1="266.88" x2="618.776" y2="428.852" stroke="black"/>
<line x1="198.81" y1="156.949" x2="198.758" y2="252.189" stroke="black"/>
<line x1="1.4043" y1="269.632" x2="1.0772" y2="431.152" stroke="black"/>
<line x1="376.473" y1="76.953" x2="376.07" y2="165.531" stroke="black"/>
<line x1="155.694" y1="205.813" x2="155.694" y2="239.614" stroke="black"/>
<line x1="618.346" y1="428.861" x2="645.261" y2="414.009" stroke="black"/>
<line x1="431.428" y1="535.664" x2="456.958" y2="521.46" stroke="black"/>
<line x1="0.874721" y1="430.689" x2="20.9592" y2="442.511" stroke="black"/>
</g>
<defs>
<clipPath id="clip0_17_649">
<rect width="646" height="537" fill="white"/>
</clipPath>
</defs>
</svg>
