<svg width="2048" height="2048" viewBox="0 0 2048 2048" fill="none" xmlns="http://www.w3.org/2000/svg">
<g clip-path="url(#clip0_18_961)">
<mask id="mask0_18_961" style="mask-type:luminance" maskUnits="userSpaceOnUse" x="129" y="278" width="1788" height="1492">
<path d="M1907 288V1760H139V288H1907Z" fill="white" stroke="white" stroke-width="20"/>
</mask>
<g mask="url(#mask0_18_961)">
<path d="M1894.17 984.396C1870.6 997.897 1847.13 1011.4 1823.55 1024.9V1459.43C1846.59 1446.46 1869.63 1433.39 1892.57 1420.42C1893.1 1275.12 1893.64 1129.7 1894.17 984.396Z" fill="white"/>
<path d="M1385.99 1275.33C1362.41 1288.83 1338.94 1302.23 1315.36 1315.73V1748.87C1338.4 1735.9 1361.44 1722.93 1384.38 1709.97C1384.91 1565.09 1385.45 1420.21 1385.99 1275.33Z" fill="white"/>
<path d="M150.995 1029.62C169.213 1040.33 187.432 1051.05 205.757 1061.76C205.329 1206.96 205.007 1352.27 204.579 1497.47C186.682 1487.08 168.892 1476.68 150.995 1466.29V1029.51V1029.62Z" fill="white"/>
<path d="M686.185 724.107C704.403 734.823 722.622 745.538 740.949 756.256C740.519 901.456 740.197 1046.76 739.769 1191.96C721.872 1181.57 704.081 1171.17 686.185 1160.78V724.001V724.107Z" fill="white"/>
<path d="M1115.82 478.82C1134.04 489.536 1152.25 500.252 1170.58 510.967C1170.15 656.167 1169.83 801.475 1169.4 946.675C1151.5 936.282 1133.72 925.885 1115.82 915.491V478.82Z" fill="white"/>
<path d="M568.626 858.376H502.933V975.715H568.626V858.376Z" fill="white"/>
<path d="M1475.36 335.55H1411.17V529.507H1475.36V335.55Z" fill="white"/>
<path d="M569.696 856.984V951.283" stroke="black" stroke-width="10" stroke-miterlimit="10"/>
<path d="M685.222 724.857V982.68" stroke="black" stroke-width="10" stroke-miterlimit="10"/>
<path d="M1115.82 478.822V748.541" stroke="black" stroke-width="10" stroke-miterlimit="10"/>
<path d="M150.993 1029.61V1466.39" stroke="black" stroke-width="10" stroke-miterlimit="10"/>
<path d="M1167.69 481.822V751.649" stroke="black" stroke-width="10" stroke-miterlimit="10"/>
<mask id="mask1_18_961" style="mask-type:luminance" maskUnits="userSpaceOnUse" x="150" y="302" width="1745" height="1012">
<path d="M1114.53 478.821L1422.85 302.867L1476.75 334.586C1455.86 349.374 1440.64 369.198 1431 394.273C1421.46 419.348 1427.89 445.495 1449.64 472.177C1502.8 535.079 1553.49 595.516 1601.82 651.882C1650.15 708.142 1704.06 771.47 1763.75 841.875C1783.04 864.377 1803.08 888.274 1826.55 913.136C1849.05 938.426 1871.66 961.999 1894.17 984.503L1823.55 1024.79L1168.97 888.596L1385.13 1275.01L1317.61 1313.48C1154.29 1264.94 993.541 1216.93 833.539 1168.49C674.395 1120.49 535.294 1078.69 415.481 1043.65C380.866 1033.58 343.894 1031.44 303.706 1036.58C263.519 1041.83 232.226 1050.41 205.755 1061.76L150.993 1029.62L513.111 822.907L570.979 856.984C552.547 867.486 536.474 880.452 521.256 895.669C506.038 910.884 504.431 922.03 517.289 929.53C519.754 930.923 525.328 933.389 534.223 935.747C543.009 939.067 553.405 942.39 564.764 945.391C640.317 969.394 724.765 995.754 817.25 1024.9C909.734 1054.16 1031.16 1091.98 1179.9 1138.49L940.706 737.074C917.343 714.356 855.294 717.143 824.431 726.68C792.174 736.539 749.413 751.432 739.661 757.005L684.9 724.858L982.287 555.118L1079.38 728.608L1669.66 850.663C1619.82 794.297 1572.24 738.575 1526.37 684.567C1480.51 630.559 1437 580.837 1393.59 535.83C1383.09 525.007 1373.45 515.577 1365.41 506.254C1356.51 497.36 1347.73 489.323 1335.62 482.25C1325.97 476.571 1313.11 473.678 1296.18 473.999C1280.1 474.749 1263.28 476.892 1244.74 480.964C1229.52 485.037 1213.44 489.537 1199.08 495.859C1183.76 501.753 1173.37 506.79 1167.69 510.004L1114.64 478.821H1114.53Z" fill="white"/>
</mask>
<g mask="url(#mask1_18_961)">
<path d="M1114.53 478.821L1422.85 302.867L1476.75 334.586C1455.86 349.374 1440.64 369.198 1431 394.273C1421.46 419.348 1427.89 445.495 1449.64 472.177C1502.8 535.079 1553.49 595.516 1601.82 651.882C1650.15 708.142 1704.06 771.47 1763.75 841.875C1783.04 864.377 1803.08 888.274 1826.55 913.136C1849.05 938.426 1871.66 961.999 1894.17 984.503L1823.55 1024.79L1168.97 888.596L1385.13 1275.01L1317.61 1313.48C1154.29 1264.94 993.541 1216.93 833.539 1168.49C674.395 1120.49 535.294 1078.69 415.481 1043.65C380.866 1033.58 343.894 1031.44 303.706 1036.58C263.519 1041.83 232.226 1050.41 205.755 1061.76L150.993 1029.62L513.111 822.907L570.979 856.984C552.547 867.486 536.474 880.452 521.256 895.669C506.038 910.884 504.431 922.03 517.289 929.53C519.754 930.923 525.328 933.389 534.223 935.747C543.009 939.067 553.405 942.39 564.764 945.391C640.317 969.394 724.765 995.754 817.25 1024.9C909.734 1054.16 1031.16 1091.98 1179.9 1138.49L940.706 737.074C917.343 714.356 855.294 717.143 824.431 726.68C792.174 736.539 749.413 751.432 739.661 757.005L684.9 724.858L982.287 555.118L1079.38 728.608L1669.66 850.663C1619.82 794.297 1572.24 738.575 1526.37 684.567C1480.51 630.559 1437 580.837 1393.59 535.83C1383.09 525.007 1373.45 515.577 1365.41 506.254C1356.51 497.36 1347.73 489.323 1335.62 482.25C1325.97 476.571 1313.11 473.678 1296.18 473.999C1280.1 474.749 1263.28 476.892 1244.74 480.964C1229.52 485.037 1213.44 489.537 1199.08 495.859C1183.76 501.753 1173.37 506.79 1167.69 510.004L1114.64 478.821H1114.53Z" stroke="black" stroke-width="10" stroke-miterlimit="10"/>
</g>
<mask id="mask2_18_961" style="mask-type:luminance" maskUnits="userSpaceOnUse" x="1113" y="302" width="310" height="614">
<path d="M1114.53 478.821L1422.85 302.867L1421.57 739.537L1113.35 915.492L1114.53 478.821Z" fill="white"/>
</mask>
<g mask="url(#mask2_18_961)">
<path d="M1113.35 915.492L1114.53 478.821L1422.85 302.867L1421.57 739.537" stroke="black" stroke-width="10" stroke-miterlimit="10"/>
</g>
<mask id="mask3_18_961" style="mask-type:luminance" maskUnits="userSpaceOnUse" x="1421" y="302" width="56" height="470">
<path d="M1422.85 302.867L1476.75 334.478L1475.58 771.257L1421.57 739.537L1422.85 302.867Z" fill="white"/>
</mask>
<g mask="url(#mask3_18_961)">
<path d="M1422.85 302.867L1476.75 334.478L1475.58 771.257" stroke="black" stroke-width="10" stroke-miterlimit="10"/>
</g>
<mask id="mask4_18_961" style="mask-type:luminance" maskUnits="userSpaceOnUse" x="1823" y="985" width="73" height="478">
<path d="M1895.34 985.271L1894.05 1422.05L1823.43 1462.34L1824.72 1025.56L1895.34 985.271Z" fill="white"/>
</mask>
<g mask="url(#mask4_18_961)">
<path d="M1895.34 985.271L1894.05 1422.05L1823.43 1462.34L1824.72 1025.56" stroke="black" stroke-width="10" stroke-miterlimit="10"/>
</g>
<mask id="mask5_18_961" style="mask-type:luminance" maskUnits="userSpaceOnUse" x="1316" y="1274" width="70" height="477">
<path d="M1385.13 1274.9L1383.84 1711.68L1316.33 1750.26L1317.61 1313.48L1385.13 1274.9Z" fill="white"/>
</mask>
<g mask="url(#mask5_18_961)">
<path d="M1385.13 1274.9L1383.84 1711.68L1316.33 1750.26L1317.61 1313.48" stroke="black" stroke-width="10" stroke-miterlimit="10"/>
</g>
<mask id="mask6_18_961" style="mask-type:luminance" maskUnits="userSpaceOnUse" x="204" y="1033" width="1114" height="718">
<path d="M1317.61 1313.48L1316.33 1750.26C1153 1701.72 992.255 1653.71 832.254 1605.27C673.11 1557.26 534.009 1515.47 414.196 1480.43C379.581 1470.36 342.608 1468.22 302.421 1473.36C262.233 1478.61 230.94 1487.18 204.47 1498.54L205.756 1061.76C232.226 1050.3 263.626 1041.83 303.706 1036.58C343.894 1031.33 380.867 1033.58 415.481 1043.65C535.294 1078.69 674.398 1120.49 833.539 1168.49C993.54 1216.93 1154.29 1264.94 1317.61 1313.48Z" fill="white"/>
</mask>
<g mask="url(#mask6_18_961)">
<path d="M1317.61 1313.48L1316.33 1750.26C1153.01 1701.72 992.254 1653.71 832.253 1605.27L833.541 1168.49C993.54 1216.93 1154.29 1264.94 1317.61 1313.48Z" stroke="black" stroke-width="10" stroke-miterlimit="10"/>
<path d="M1155.04 1265.04L1153.86 1701.82" stroke="black" stroke-width="10" stroke-miterlimit="10"/>
<path d="M993.862 1216.82L992.683 1653.6" stroke="black" stroke-width="10" stroke-miterlimit="10"/>
<path d="M833.54 1168.49L832.254 1605.27C673.111 1557.26 534.009 1515.47 414.196 1480.43L415.482 1043.65C535.295 1078.69 674.399 1120.49 833.54 1168.49Z" stroke="black" stroke-width="10" stroke-miterlimit="10"/>
<path d="M681.04 1122.63L679.755 1559.3" stroke="black" stroke-width="10" stroke-miterlimit="10"/>
<path d="M541.723 1080.94L540.546 1517.72" stroke="black" stroke-width="10" stroke-miterlimit="10"/>
<path d="M415.482 1043.65L414.196 1480.43C379.581 1470.36 342.609 1468.22 302.421 1473.36L303.707 1036.58C343.895 1031.33 380.867 1033.58 415.482 1043.65Z" stroke="black" stroke-width="10" stroke-miterlimit="10"/>
<path d="M380.008 1036.15L378.829 1472.93" stroke="black" stroke-width="10" stroke-miterlimit="10"/>
<path d="M342.822 1033.9L341.644 1470.57" stroke="black" stroke-width="10" stroke-miterlimit="10"/>
<path d="M303.706 1036.58L302.421 1473.36C262.233 1478.61 230.94 1487.18 204.47 1498.54L205.756 1061.76C232.226 1050.3 263.626 1041.83 303.706 1036.58Z" stroke="black" stroke-width="10" stroke-miterlimit="10"/>
<path d="M266.305 1042.9L265.126 1479.68" stroke="black" stroke-width="10" stroke-miterlimit="10"/>
<path d="M233.94 1051.37L232.761 1488.15" stroke="black" stroke-width="10" stroke-miterlimit="10"/>
<path d="M1317.61 1313.48L1316.33 1750.26C1153 1701.72 992.255 1653.71 832.254 1605.27C673.11 1557.26 534.009 1515.47 414.196 1480.43C379.581 1470.36 342.608 1468.22 302.421 1473.36C262.233 1478.61 230.94 1487.18 204.47 1498.54L205.756 1061.76C232.226 1050.3 263.626 1041.83 303.706 1036.58C343.894 1031.33 380.867 1033.58 415.481 1043.65C535.294 1078.69 674.398 1120.49 833.539 1168.49C993.54 1216.93 1154.29 1264.94 1317.61 1313.48Z" stroke="black" stroke-width="10" stroke-miterlimit="10"/>
</g>
<mask id="mask7_18_961" style="mask-type:luminance" maskUnits="userSpaceOnUse" x="149" y="1029" width="57" height="470">
<path d="M205.756 1061.76L204.47 1498.54L149.708 1466.39L150.994 1029.61L205.756 1061.76Z" fill="white"/>
</mask>
<g mask="url(#mask7_18_961)">
<path d="M205.756 1061.76L204.47 1498.54L149.708 1466.39L150.994 1029.61" stroke="black" stroke-width="10" stroke-miterlimit="10"/>
</g>
<path d="M569.803 1293.76L511.933 1259.69" stroke="black" stroke-width="10" stroke-miterlimit="10"/>
<mask id="mask8_18_961" style="mask-type:luminance" maskUnits="userSpaceOnUse" x="683" y="724" width="57" height="470">
<path d="M739.661 757.004L738.481 1193.78L683.72 1161.64L685.005 724.857L739.661 757.004Z" fill="white"/>
</mask>
<g mask="url(#mask8_18_961)">
<path d="M739.661 757.004L738.481 1193.78L683.72 1161.64L685.005 724.857" stroke="black" stroke-width="10" stroke-miterlimit="10"/>
</g>
<mask id="mask9_18_961" style="mask-type:luminance" maskUnits="userSpaceOnUse" x="683" y="555" width="300" height="607">
<path d="M685.005 724.858L982.395 555.119L981.11 991.896L683.72 1161.64L685.005 724.858Z" fill="white"/>
</mask>
<g mask="url(#mask9_18_961)">
<path d="M683.72 1161.64L685.005 724.858L982.395 555.119L981.11 991.896" stroke="black" stroke-width="10" stroke-miterlimit="10"/>
</g>
<mask id="mask10_18_961" style="mask-type:luminance" maskUnits="userSpaceOnUse" x="981" y="555" width="99" height="611">
<path d="M982.396 555.119L1079.38 728.608L1078.2 1165.39L981.108 991.896L982.396 555.119Z" fill="white"/>
</mask>
<g mask="url(#mask10_18_961)">
<path d="M982.396 555.119L1079.38 728.608L1078.2 1165.39" stroke="black" stroke-width="10" stroke-miterlimit="10"/>
</g>
<mask id="mask11_18_961" style="mask-type:luminance" maskUnits="userSpaceOnUse" x="1078" y="728" width="592" height="560">
<path d="M1079.38 728.609L1669.66 850.663L1668.37 1287.44L1078.2 1165.39L1079.38 728.609Z" fill="white"/>
</mask>
<g mask="url(#mask11_18_961)">
<path d="M1079.38 728.609L1669.66 850.663L1668.37 1287.44" stroke="black" stroke-width="10" stroke-miterlimit="10"/>
</g>
<mask id="mask12_18_961" style="mask-type:luminance" maskUnits="userSpaceOnUse" x="1364" y="506" width="306" height="782">
<path d="M1365.3 506.148C1373.34 515.578 1382.99 525.008 1393.49 535.724C1436.89 580.729 1480.4 630.452 1526.27 684.46C1572.14 738.362 1619.72 794.19 1669.55 850.555L1668.27 1287.33C1618.43 1230.97 1570.85 1175.25 1524.98 1121.24C1479.12 1067.23 1435.61 1017.51 1392.2 972.502C1381.7 961.681 1372.06 952.249 1364.02 942.926" fill="white"/>
</mask>
<g mask="url(#mask12_18_961)">
<path d="M1392.31 972.61C1381.81 961.786 1372.16 952.358 1364.12 943.035" stroke="black" stroke-width="10" stroke-miterlimit="10"/>
</g>
<mask id="mask13_18_961" style="mask-type:luminance" maskUnits="userSpaceOnUse" x="1166" y="495" width="34" height="452">
<path d="M1197.8 932.639C1182.48 938.531 1172.08 943.568 1166.4 946.783L1167.69 510.004C1173.26 506.789 1183.76 501.753 1199.09 495.859" fill="white"/>
</mask>
<g mask="url(#mask13_18_961)">
<path d="M1197.8 932.638C1182.48 938.53 1172.08 943.567 1166.4 946.782L1167.69 510.003" stroke="black" stroke-width="10" stroke-miterlimit="10"/>
</g>
<mask id="mask14_18_961" style="mask-type:luminance" maskUnits="userSpaceOnUse" x="1113" y="478" width="55" height="469">
<path d="M1167.69 510.005L1166.4 946.784L1113.35 915.494L1114.53 478.822L1167.69 510.005Z" fill="white"/>
</mask>
<g mask="url(#mask14_18_961)">
<path d="M1166.4 946.784L1113.35 915.494L1114.53 478.822" stroke="black" stroke-width="10" stroke-miterlimit="10"/>
</g>
<path d="M306.173 647.382V647.918" stroke="black" stroke-width="10" stroke-miterlimit="10"/>
<path d="M1385.13 1274.9L1384.39 1714.2" stroke="black" stroke-width="10" stroke-miterlimit="10"/>
<path d="M1823.55 1023.51V1459.43" stroke="black" stroke-width="10" stroke-miterlimit="10"/>
<path d="M1892.57 984.396V1421.17" stroke="black" stroke-width="10" stroke-miterlimit="10"/>
<path d="M1475.36 334.478V771.257" stroke="black" stroke-width="10" stroke-miterlimit="10"/>
<path d="M1318.49 1316.44L1386 1277.86" stroke="black" stroke-width="10" stroke-miterlimit="10"/>
<path d="M1315.68 1748.87L1385.77 1710.5" stroke="black" stroke-width="10" stroke-miterlimit="10"/>
<path d="M204.558 1496.68C204.772 1350.84 205.006 1205.79 205.22 1059.83C229.119 1049.23 268.127 1035.51 317.96 1033.37C358.79 1031.65 397.216 1037.65 420.256 1044.08C720.753 1133.45 1016.96 1223.84 1317.46 1313.21C1317.03 1458.52 1316.52 1604.7 1316.2 1750.01C1012.7 1659.46 708.942 1568.42 405.445 1477.98C376.402 1470.44 348.931 1468.97 310.565 1472.08C257.868 1478.71 229.312 1488.16 204.663 1498.24L204.558 1496.68Z" fill="black"/>
<path d="M738.376 998.97C738.59 917.745 738.804 836.625 739.02 755.399C773.098 739.754 802.568 731.075 823.787 726.038C827.538 725.18 852.938 717.893 883.587 718.964C916.274 720.143 929.99 729.039 933.419 731.397C945.422 739.541 952.281 750.04 955.924 757.005L1180.12 1139.03C1032.87 1092.31 885.73 1045.69 738.484 998.97H738.376Z" fill="black"/>
<path d="M1168.97 748.112C1168.97 668.492 1168.97 588.768 1168.97 509.147C1202.41 489.002 1232.63 479.572 1252.99 474.857C1255.88 474.214 1284.71 467.891 1321.9 469.606C1339.9 470.463 1351.16 472.821 1361.55 480.322C1372.05 487.93 1377.52 497.896 1380.41 504.432C1476.86 619.844 1573.21 735.36 1669.66 850.768C1502.8 816.586 1335.83 782.403 1168.97 748.325V748.112Z" fill="white"/>
<path d="M1822.26 1461.47C1822.69 1315.84 1823.12 1170.32 1823.55 1024.69C1604.82 979.039 1386.2 933.497 1167.47 887.847C1240.02 1017.08 1312.57 1146.31 1385.13 1275.55C1385.13 1307.05 1385.24 1338.45 1385.34 1369.95C1530.98 1400.49 1676.62 1430.93 1822.26 1461.47Z" fill="black"/>
<path d="M1825.25 1026.3L1894.27 987.182" stroke="black" stroke-width="10" stroke-miterlimit="10"/>
<path d="M1317.4 1312.3C1122.14 1254.22 972.962 1209.65 833.861 1167.53C667.538 1117.38 532.829 1076.88 415.802 1042.69C393.404 1036.15 369.506 1032.83 344.643 1032.83C331.461 1032.83 317.637 1033.8 303.598 1035.51C265.34 1040.55 233.189 1048.8 205.326 1060.8L153.136 1029.62L513.111 824.195L568.944 856.985C552.224 866.735 536.365 879.168 520.611 894.918C511.181 904.349 506.893 912.172 507.75 918.815C508.286 923.423 511.395 927.281 516.861 930.496C518.146 931.245 523.077 933.925 534.008 936.818C543.225 940.355 553.832 943.678 564.55 946.463C670.753 973.789 753.593 1003.47 793.351 1017.72C804.174 1021.58 812.214 1024.47 816.927 1025.97C885.943 1047.73 996.86 1082.55 1179.58 1139.56L1182.26 1140.42L954.53 754.969C951.315 749.399 947.351 744.362 942.848 739.968C927.952 725.607 906.197 718.323 878.226 718.323C819.823 718.323 752.2 749.718 739.231 756.043L712.87 739.968L687.148 724.858L981.964 556.619L1078.52 729.144L1672.66 852.378L1670.51 849.912C1620.89 793.868 1573.63 738.362 1527.98 684.673C1488.22 637.847 1441.82 584.266 1394.45 535.08L1387.16 527.687C1379.55 519.971 1372.37 512.684 1366.26 505.505C1358.12 497.253 1348.9 488.681 1336.26 481.287C1326.72 475.715 1314.29 472.929 1299.07 472.929H1296.29C1279.46 473.786 1262.63 476.036 1244.63 479.894C1228.56 484.18 1212.91 488.574 1198.76 494.896C1181.3 501.647 1171.65 506.683 1167.79 508.719L1116.78 478.715L1422.85 304.046L1474.82 334.586C1454.57 349.267 1439.57 369.199 1430.03 393.738C1420.39 418.92 1426.71 445.496 1448.78 472.714L1493.15 525.222C1530.34 569.371 1566.35 611.913 1601.07 652.418C1648.44 707.605 1701.38 769.757 1763 842.411L1769.86 850.45C1787.22 870.807 1805.22 891.811 1825.9 913.778C1845.94 936.283 1867.81 959.323 1892.56 984.182L1823.12 1023.83L1167.04 887.096L1383.84 1274.58L1317.72 1312.3H1317.4Z" fill="white"/>
<mask id="path-68-inside-1_18_961" fill="white">
<path d="M1422.85 305.331L1472.9 334.693C1453.18 349.373 1438.39 369.091 1429.07 393.416C1419.31 418.919 1425.64 445.923 1448.03 473.463C1462.93 491.144 1477.72 508.611 1492.19 525.757C1529.91 570.442 1565.49 612.556 1600.21 653.061C1647.58 708.248 1702.13 772.222 1762.03 843.054L1769.21 851.412C1786.47 871.664 1804.36 892.56 1824.83 914.421C1844.66 936.709 1866.2 959.427 1890.53 983.86L1823.01 1022.44L1169.29 886.452L1164.68 885.489L1166.94 889.561L1382.02 1274.05L1317.18 1311.01C1121.39 1252.83 972.321 1208.14 834.075 1166.35C667.861 1116.2 533.151 1075.8 416.017 1041.51C393.512 1034.97 369.507 1031.65 344.537 1031.65C331.355 1031.65 317.531 1032.62 303.385 1034.44C265.448 1039.37 233.512 1047.51 205.863 1059.41L155.28 1029.62L513.111 825.373L566.801 856.876C550.512 866.521 535.186 878.737 519.754 894.06C510.002 903.813 505.716 911.849 506.574 918.815C507.215 923.744 510.432 927.924 516.218 931.353C517.503 932.102 522.647 934.889 533.473 937.674C542.795 941.211 553.405 944.532 564.228 947.319C670.431 974.645 753.164 1004.33 792.924 1018.58C803.853 1022.54 811.784 1025.33 816.606 1026.83C909.093 1055.98 1031.05 1094.23 1179.26 1140.42L1184.62 1142.03L1181.83 1137.2L1043.8 903.492L955.602 754.111C952.281 748.433 948.315 743.288 943.706 738.896C928.597 724.322 906.628 716.927 878.335 716.927C821.108 716.927 755.093 746.932 739.875 754.22L713.512 738.68L689.294 724.428L981.643 557.583L1077.67 729.143L1078.09 730.001L1079.06 730.214L1669.33 852.269L1675.66 853.556L1671.37 848.732C1621.65 792.583 1574.28 736.86 1528.09 682.744C1488.97 636.772 1442.68 583.194 1395.2 533.901C1392.74 531.436 1390.38 528.972 1388.02 526.614C1380.41 518.899 1373.23 511.612 1367.02 504.325C1358.87 496.181 1349.66 487.501 1336.8 480C1327.15 474.321 1314.4 471.427 1298.96 471.427C1298.11 471.427 1297.14 471.427 1296.18 471.427C1279.35 472.177 1262.31 474.535 1244.31 478.5C1228.24 482.786 1212.59 487.18 1198.34 493.502C1181.51 500.039 1171.87 504.861 1167.79 507.218L1118.93 478.5L1422.85 305.331ZM1422.85 302.867L1114.53 478.821L1167.58 510.004C1173.15 506.79 1183.65 501.753 1198.98 495.859C1213.34 489.43 1229.42 485.037 1244.63 480.964C1263.17 476.892 1280 474.749 1296.07 473.999C1296.93 473.999 1297.89 473.999 1298.75 473.999C1314.29 473.999 1326.4 476.892 1335.51 482.25C1347.62 489.323 1356.41 497.36 1365.3 506.254C1373.34 515.684 1382.98 525.114 1393.49 535.83C1436.89 580.837 1480.4 630.559 1526.27 684.567C1572.13 738.466 1619.72 794.297 1669.55 850.663L1079.27 728.608L982.179 555.118L684.791 724.858C703.01 735.573 721.229 746.289 739.553 757.005C749.413 752.183 818.751 719.393 878.121 719.393C902.769 719.393 925.704 725.071 941.994 740.716C946.172 744.788 950.138 749.612 953.458 755.504C1028.9 883.131 1104.35 1010.86 1179.79 1138.49C996.969 1081.48 886.158 1046.66 817.144 1024.9C794.637 1017.83 699.26 979.896 564.658 945.391C553.405 942.495 543.009 939.175 534.114 935.747C525.22 933.389 519.649 930.923 517.184 929.53C504.323 921.921 505.93 910.779 521.148 895.669C536.474 880.452 552.441 867.486 570.874 856.984L513.003 822.907L150.993 1029.62L205.755 1061.77C232.226 1050.3 263.626 1041.83 303.706 1036.58C317.745 1034.76 331.355 1033.9 344.537 1033.9C369.292 1033.9 392.869 1037.12 415.481 1043.65C535.294 1078.69 674.395 1120.49 833.539 1168.49C993.541 1216.93 1154.29 1264.94 1317.61 1313.48L1385.13 1275.01L1168.97 888.596L1823.55 1024.79L1894.17 984.503C1871.66 961.999 1849.05 938.426 1826.55 913.136C1803.08 888.274 1783.04 864.377 1763.75 841.875C1704.16 771.47 1650.26 708.142 1601.82 651.882C1553.49 595.624 1502.8 535.079 1449.64 472.177C1427.99 445.388 1421.46 419.348 1431 394.273C1440.64 369.198 1455.86 349.374 1476.75 334.586L1422.85 302.867Z"/>
</mask>
<path d="M1422.85 305.331L1472.9 334.693C1453.18 349.373 1438.39 369.091 1429.07 393.416C1419.31 418.919 1425.64 445.923 1448.03 473.463C1462.93 491.144 1477.72 508.611 1492.19 525.757C1529.91 570.442 1565.49 612.556 1600.21 653.061C1647.58 708.248 1702.13 772.222 1762.03 843.054L1769.21 851.412C1786.47 871.664 1804.36 892.56 1824.83 914.421C1844.66 936.709 1866.2 959.427 1890.53 983.86L1823.01 1022.44L1169.29 886.452L1164.68 885.489L1166.94 889.561L1382.02 1274.05L1317.18 1311.01C1121.39 1252.83 972.321 1208.14 834.075 1166.35C667.861 1116.2 533.151 1075.8 416.017 1041.51C393.512 1034.97 369.507 1031.65 344.537 1031.65C331.355 1031.65 317.531 1032.62 303.385 1034.44C265.448 1039.37 233.512 1047.51 205.863 1059.41L155.28 1029.62L513.111 825.373L566.801 856.876C550.512 866.521 535.186 878.737 519.754 894.06C510.002 903.813 505.716 911.849 506.574 918.815C507.215 923.744 510.432 927.924 516.218 931.353C517.503 932.102 522.647 934.889 533.473 937.674C542.795 941.211 553.405 944.532 564.228 947.319C670.431 974.645 753.164 1004.33 792.924 1018.58C803.853 1022.54 811.784 1025.33 816.606 1026.83C909.093 1055.98 1031.05 1094.23 1179.26 1140.42L1184.62 1142.03L1181.83 1137.2L1043.8 903.492L955.602 754.111C952.281 748.433 948.315 743.288 943.706 738.896C928.597 724.322 906.628 716.927 878.335 716.927C821.108 716.927 755.093 746.932 739.875 754.22L713.512 738.68L689.294 724.428L981.643 557.583L1077.67 729.143L1078.09 730.001L1079.06 730.214L1669.33 852.269L1675.66 853.556L1671.37 848.732C1621.65 792.583 1574.28 736.86 1528.09 682.744C1488.97 636.772 1442.68 583.194 1395.2 533.901C1392.74 531.436 1390.38 528.972 1388.02 526.614C1380.41 518.899 1373.23 511.612 1367.02 504.325C1358.87 496.181 1349.66 487.501 1336.8 480C1327.15 474.321 1314.4 471.427 1298.96 471.427C1298.11 471.427 1297.14 471.427 1296.18 471.427C1279.35 472.177 1262.31 474.535 1244.31 478.5C1228.24 482.786 1212.59 487.18 1198.34 493.502C1181.51 500.039 1171.87 504.861 1167.79 507.218L1118.93 478.5L1422.85 305.331ZM1422.85 302.867L1114.53 478.821L1167.58 510.004C1173.15 506.79 1183.65 501.753 1198.98 495.859C1213.34 489.43 1229.42 485.037 1244.63 480.964C1263.17 476.892 1280 474.749 1296.07 473.999C1296.93 473.999 1297.89 473.999 1298.75 473.999C1314.29 473.999 1326.4 476.892 1335.51 482.25C1347.62 489.323 1356.41 497.36 1365.3 506.254C1373.34 515.684 1382.98 525.114 1393.49 535.83C1436.89 580.837 1480.4 630.559 1526.27 684.567C1572.13 738.466 1619.72 794.297 1669.55 850.663L1079.27 728.608L982.179 555.118L684.791 724.858C703.01 735.573 721.229 746.289 739.553 757.005C749.413 752.183 818.751 719.393 878.121 719.393C902.769 719.393 925.704 725.071 941.994 740.716C946.172 744.788 950.138 749.612 953.458 755.504C1028.9 883.131 1104.35 1010.86 1179.79 1138.49C996.969 1081.48 886.158 1046.66 817.144 1024.9C794.637 1017.83 699.26 979.896 564.658 945.391C553.405 942.495 543.009 939.175 534.114 935.747C525.22 933.389 519.649 930.923 517.184 929.53C504.323 921.921 505.93 910.779 521.148 895.669C536.474 880.452 552.441 867.486 570.874 856.984L513.003 822.907L150.993 1029.62L205.755 1061.77C232.226 1050.3 263.626 1041.83 303.706 1036.58C317.745 1034.76 331.355 1033.9 344.537 1033.9C369.292 1033.9 392.869 1037.12 415.481 1043.65C535.294 1078.69 674.395 1120.49 833.539 1168.49C993.541 1216.93 1154.29 1264.94 1317.61 1313.48L1385.13 1275.01L1168.97 888.596L1823.55 1024.79L1894.17 984.503C1871.66 961.999 1849.05 938.426 1826.55 913.136C1803.08 888.274 1783.04 864.377 1763.75 841.875C1704.16 771.47 1650.26 708.142 1601.82 651.882C1553.49 595.624 1502.8 535.079 1449.64 472.177C1427.99 445.388 1421.46 419.348 1431 394.273C1440.64 369.198 1455.86 349.374 1476.75 334.586L1422.85 302.867Z" fill="black" stroke="black" stroke-width="20" mask="url(#path-68-inside-1_18_961)"/>
<path d="M1115.89 475.853L1115.45 734" stroke="black" stroke-width="10"/>
<path d="M1475.14 334.703V504.062" stroke="black" stroke-width="10"/>
<path d="M1383.33 1276.56L1384.14 1702.85" stroke="black" stroke-width="10"/>
<path d="M1893.05 985.425L1893.66 1421.18" stroke="black" stroke-width="10"/>
<path d="M1824.45 1022.13L1822.65 1449.86" stroke="black" stroke-width="10"/>
<path d="M684.823 727.607L686.131 982.405" stroke="black" stroke-width="10"/>
<path d="M152.115 1029.57L151.229 1466.31" stroke="black" stroke-width="10"/>
<path d="M1167.01 508.583L1165.92 748.09" stroke="black" stroke-width="10"/>
<path d="M569.604 857.009V948.404" stroke="black" stroke-width="10"/>
<path d="M1819.71 1457.15L1896.07 1416.6" stroke="black" stroke-width="10"/>
<path d="M1315.71 1748.9L1387.11 1709.68" stroke="black" stroke-width="10"/>
<path d="M151.77 1462.17L206.626 1494.28" stroke="black" stroke-width="10"/>
</g>
<line x1="151.504" y1="1033.18" x2="204.626" y2="1064.36" stroke="black" stroke-width="10"/>
<line x1="509.677" y1="825.756" x2="572.427" y2="861.064" stroke="black" stroke-width="10"/>
<line x1="681.318" y1="723.27" x2="744.068" y2="758.579" stroke="black" stroke-width="10"/>
<line x1="1415.79" y1="304.482" x2="1478.54" y2="339.791" stroke="black" stroke-width="10"/>
<line x1="1113.92" y1="480.171" x2="1420.35" y2="304.706" stroke="black" stroke-width="10"/>
<path d="M684.873 725.464L982.382 553.452" stroke="black" stroke-width="10"/>
<line x1="150.458" y1="1034.42" x2="514.819" y2="825.583" stroke="black" stroke-width="10"/>
<line x1="1075.14" y1="730.052" x2="977.636" y2="555.544" stroke="black" stroke-width="10"/>
<line x1="1116.08" y1="476.934" x2="1169.44" y2="507.932" stroke="black" stroke-width="10"/>
<path d="M1669.43 855.513L1071.86 727.763" stroke="black" stroke-width="10"/>
<line x1="1170.68" y1="1132.28" x2="520.054" y2="930.274" stroke="black" stroke-width="10"/>
<line x1="1672.11" y1="857.093" x2="1371.94" y2="509.161" stroke="black" stroke-width="10"/>
<line x1="1893.23" y1="988.296" x2="1451.38" y2="477.648" stroke="black" stroke-width="10"/>
<path d="M1469.78 339.693C1454.79 351.563 1425.03 382.798 1425.92 412.783C1426.82 442.769 1443.54 468.756 1451.79 478.002" stroke="black" stroke-width="10"/>
<path d="M1168.42 508.362C1188.79 499.366 1226.52 483.624 1252.38 478.002C1274.97 473.092 1298.97 471.673 1314.6 473.879C1346.46 478.377 1361.47 496.542 1372.71 510.035" stroke="black" stroke-width="10"/>
<path d="M564.929 860.132C549.233 872.606 514.405 900.715 510.637 907.852C505.928 916.774 507.415 921.979 508.902 923.961C510.389 925.944 522.387 931.766 523.874 931.518" stroke="black" stroke-width="10"/>
</g>
<defs>
<clipPath id="clip0_18_961">
<rect width="1748" height="1452" fill="white" transform="translate(149 298)"/>
</clipPath>
</defs>
</svg>
